<mxfile host="app.diagrams.net" modified="2024-07-17T04:34:30.115Z" agent="Mozilla/5.0 (Windows NT 10.0; Win64; x64) AppleWebKit/537.36 (KHTML, like Gecko) Chrome/126.0.0.0 Safari/537.36" etag="3EstQvDTnNFafyWJVMHK" version="24.6.4" type="github" pages="2">
  <diagram name="Context" id="GarfGactDtrMJLCttcpA">
    <mxGraphModel dx="2524" dy="1846" grid="1" gridSize="10" guides="1" tooltips="1" connect="1" arrows="1" fold="1" page="1" pageScale="1" pageWidth="850" pageHeight="1100" math="0" shadow="0">
      <root>
        <mxCell id="0" />
        <mxCell id="1" parent="0" />
        <mxCell id="pNY0bsHpFRQCRsH6tO0S-1" style="edgeStyle=orthogonalEdgeStyle;rounded=0;orthogonalLoop=1;jettySize=auto;html=1;" edge="1" parent="1" source="PcE6n2Ai4SdndzJtJACp-1" target="PcE6n2Ai4SdndzJtJACp-2">
          <mxGeometry relative="1" as="geometry" />
        </mxCell>
        <mxCell id="pNY0bsHpFRQCRsH6tO0S-2" value="Solicita Devolución" style="edgeLabel;html=1;align=center;verticalAlign=middle;resizable=0;points=[];" vertex="1" connectable="0" parent="pNY0bsHpFRQCRsH6tO0S-1">
          <mxGeometry x="-0.2889" y="1" relative="1" as="geometry">
            <mxPoint as="offset" />
          </mxGeometry>
        </mxCell>
        <object placeholders="1" c4Name="Cliente Compensar" c4Type="Person" c4Description="Persona que requiere una devolución" label="&lt;font style=&quot;font-size: 16px&quot;&gt;&lt;b&gt;%c4Name%&lt;/b&gt;&lt;/font&gt;&lt;div&gt;[%c4Type%]&lt;/div&gt;&lt;br&gt;&lt;div&gt;&lt;font style=&quot;font-size: 11px&quot;&gt;&lt;font color=&quot;#cccccc&quot;&gt;%c4Description%&lt;/font&gt;&lt;/div&gt;" id="PcE6n2Ai4SdndzJtJACp-1">
          <mxCell style="html=1;fontSize=11;dashed=0;whiteSpace=wrap;fillColor=#083F75;strokeColor=#06315C;fontColor=#ffffff;shape=mxgraph.c4.person2;align=center;metaEdit=1;points=[[0.5,0,0],[1,0.5,0],[1,0.75,0],[0.75,1,0],[0.5,1,0],[0.25,1,0],[0,0.75,0],[0,0.5,0]];resizable=0;" vertex="1" parent="1">
            <mxGeometry x="-60" y="70" width="200" height="180" as="geometry" />
          </mxCell>
        </object>
        <mxCell id="pNY0bsHpFRQCRsH6tO0S-10" style="edgeStyle=orthogonalEdgeStyle;rounded=0;orthogonalLoop=1;jettySize=auto;html=1;" edge="1" parent="1" source="PcE6n2Ai4SdndzJtJACp-2" target="pNY0bsHpFRQCRsH6tO0S-8">
          <mxGeometry relative="1" as="geometry" />
        </mxCell>
        <mxCell id="pNY0bsHpFRQCRsH6tO0S-11" value="Verifica Identidad del cliente" style="edgeLabel;html=1;align=center;verticalAlign=middle;resizable=0;points=[];" vertex="1" connectable="0" parent="pNY0bsHpFRQCRsH6tO0S-10">
          <mxGeometry x="0.1385" y="3" relative="1" as="geometry">
            <mxPoint as="offset" />
          </mxGeometry>
        </mxCell>
        <mxCell id="pNY0bsHpFRQCRsH6tO0S-12" style="edgeStyle=orthogonalEdgeStyle;rounded=0;orthogonalLoop=1;jettySize=auto;html=1;" edge="1" parent="1" source="PcE6n2Ai4SdndzJtJACp-2" target="pNY0bsHpFRQCRsH6tO0S-7">
          <mxGeometry relative="1" as="geometry" />
        </mxCell>
        <mxCell id="pNY0bsHpFRQCRsH6tO0S-13" value="Consulta datos Cliente Salud" style="edgeLabel;html=1;align=center;verticalAlign=middle;resizable=0;points=[];" vertex="1" connectable="0" parent="pNY0bsHpFRQCRsH6tO0S-12">
          <mxGeometry relative="1" as="geometry">
            <mxPoint as="offset" />
          </mxGeometry>
        </mxCell>
        <mxCell id="pNY0bsHpFRQCRsH6tO0S-14" style="edgeStyle=orthogonalEdgeStyle;rounded=0;orthogonalLoop=1;jettySize=auto;html=1;" edge="1" parent="1" source="PcE6n2Ai4SdndzJtJACp-2" target="pNY0bsHpFRQCRsH6tO0S-6">
          <mxGeometry relative="1" as="geometry">
            <Array as="points">
              <mxPoint x="530" y="250" />
              <mxPoint x="160" y="250" />
            </Array>
          </mxGeometry>
        </mxCell>
        <mxCell id="pNY0bsHpFRQCRsH6tO0S-15" value="Consulta datos cliente Caja" style="edgeLabel;html=1;align=center;verticalAlign=middle;resizable=0;points=[];" vertex="1" connectable="0" parent="pNY0bsHpFRQCRsH6tO0S-14">
          <mxGeometry x="-0.025" y="2" relative="1" as="geometry">
            <mxPoint as="offset" />
          </mxGeometry>
        </mxCell>
        <object placeholders="1" c4Name="Portal Corporativo" c4Type="Software System" c4Description="" label="&lt;font style=&quot;font-size: 16px&quot;&gt;&lt;b&gt;%c4Name%&lt;/b&gt;&lt;/font&gt;&lt;div&gt;[%c4Type%]&lt;/div&gt;&lt;br&gt;&lt;div&gt;&lt;font style=&quot;font-size: 11px&quot;&gt;&lt;font color=&quot;#cccccc&quot;&gt;%c4Description%&lt;/font&gt;&lt;/div&gt;" id="PcE6n2Ai4SdndzJtJACp-2">
          <mxCell style="rounded=1;whiteSpace=wrap;html=1;labelBackgroundColor=none;fillColor=#1061B0;fontColor=#ffffff;align=center;arcSize=10;strokeColor=#0D5091;metaEdit=1;resizable=0;points=[[0.25,0,0],[0.5,0,0],[0.75,0,0],[1,0.25,0],[1,0.5,0],[1,0.75,0],[0.75,1,0],[0.5,1,0],[0.25,1,0],[0,0.75,0],[0,0.5,0],[0,0.25,0]];" vertex="1" parent="1">
            <mxGeometry x="410" y="100" width="240" height="120" as="geometry" />
          </mxCell>
        </object>
        <object placeholders="1" c4Name="Repositorio Documental" c4Type="Software System" c4Description="" label="&lt;font style=&quot;font-size: 16px&quot;&gt;&lt;b&gt;%c4Name%&lt;/b&gt;&lt;/font&gt;&lt;div&gt;[%c4Type%]&lt;/div&gt;&lt;br&gt;&lt;div&gt;&lt;font style=&quot;font-size: 11px&quot;&gt;&lt;font color=&quot;#cccccc&quot;&gt;%c4Description%&lt;/font&gt;&lt;/div&gt;" id="PcE6n2Ai4SdndzJtJACp-5">
          <mxCell style="rounded=1;whiteSpace=wrap;html=1;labelBackgroundColor=none;fillColor=#1061B0;fontColor=#ffffff;align=center;arcSize=10;strokeColor=#0D5091;metaEdit=1;resizable=0;points=[[0.25,0,0],[0.5,0,0],[0.75,0,0],[1,0.25,0],[1,0.5,0],[1,0.75,0],[0.75,1,0],[0.5,1,0],[0.25,1,0],[0,0.75,0],[0,0.5,0],[0,0.25,0]];" vertex="1" parent="1">
            <mxGeometry x="860" y="-130" width="240" height="120" as="geometry" />
          </mxCell>
        </object>
        <object placeholders="1" c4Name="Marketing Cloud" c4Type="Software System" c4Description="Broker de mensajería" label="&lt;font style=&quot;font-size: 16px&quot;&gt;&lt;b&gt;%c4Name%&lt;/b&gt;&lt;/font&gt;&lt;div&gt;[%c4Type%]&lt;/div&gt;&lt;br&gt;&lt;div&gt;&lt;font style=&quot;font-size: 11px&quot;&gt;&lt;font color=&quot;#cccccc&quot;&gt;%c4Description%&lt;/font&gt;&lt;/div&gt;" id="pNY0bsHpFRQCRsH6tO0S-4">
          <mxCell style="rounded=1;whiteSpace=wrap;html=1;labelBackgroundColor=none;fillColor=#8C8496;fontColor=#ffffff;align=center;arcSize=10;strokeColor=#736782;metaEdit=1;resizable=0;points=[[0.25,0,0],[0.5,0,0],[0.75,0,0],[1,0.25,0],[1,0.5,0],[1,0.75,0],[0.75,1,0],[0.5,1,0],[0.25,1,0],[0,0.75,0],[0,0.5,0],[0,0.25,0]];" vertex="1" parent="1">
            <mxGeometry x="860" y="250" width="240" height="120" as="geometry" />
          </mxCell>
        </object>
        <object placeholders="1" c4Name="SAP" c4Type="Software System" c4Description="ERP" label="&lt;font style=&quot;font-size: 16px&quot;&gt;&lt;b&gt;%c4Name%&lt;/b&gt;&lt;/font&gt;&lt;div&gt;[%c4Type%]&lt;/div&gt;&lt;br&gt;&lt;div&gt;&lt;font style=&quot;font-size: 11px&quot;&gt;&lt;font color=&quot;#cccccc&quot;&gt;%c4Description%&lt;/font&gt;&lt;/div&gt;" id="pNY0bsHpFRQCRsH6tO0S-5">
          <mxCell style="rounded=1;whiteSpace=wrap;html=1;labelBackgroundColor=none;fillColor=#8C8496;fontColor=#ffffff;align=center;arcSize=10;strokeColor=#736782;metaEdit=1;resizable=0;points=[[0.25,0,0],[0.5,0,0],[0.75,0,0],[1,0.25,0],[1,0.5,0],[1,0.75,0],[0.75,1,0],[0.5,1,0],[0.25,1,0],[0,0.75,0],[0,0.5,0],[0,0.25,0]];" vertex="1" parent="1">
            <mxGeometry x="850" y="100" width="240" height="120" as="geometry" />
          </mxCell>
        </object>
        <object placeholders="1" c4Name="Gestión Clientes" c4Type="Software System" c4Description="" label="&lt;font style=&quot;font-size: 16px&quot;&gt;&lt;b&gt;%c4Name%&lt;/b&gt;&lt;/font&gt;&lt;div&gt;[%c4Type%]&lt;/div&gt;&lt;br&gt;&lt;div&gt;&lt;font style=&quot;font-size: 11px&quot;&gt;&lt;font color=&quot;#cccccc&quot;&gt;%c4Description%&lt;/font&gt;&lt;/div&gt;" id="pNY0bsHpFRQCRsH6tO0S-6">
          <mxCell style="rounded=1;whiteSpace=wrap;html=1;labelBackgroundColor=none;fillColor=#1061B0;fontColor=#ffffff;align=center;arcSize=10;strokeColor=#0D5091;metaEdit=1;resizable=0;points=[[0.25,0,0],[0.5,0,0],[0.75,0,0],[1,0.25,0],[1,0.5,0],[1,0.75,0],[0.75,1,0],[0.5,1,0],[0.25,1,0],[0,0.75,0],[0,0.5,0],[0,0.25,0]];" vertex="1" parent="1">
            <mxGeometry x="40" y="410" width="240" height="120" as="geometry" />
          </mxCell>
        </object>
        <object placeholders="1" c4Name="Registro Clientes" c4Type="Software System" c4Description="" label="&lt;font style=&quot;font-size: 16px&quot;&gt;&lt;b&gt;%c4Name%&lt;/b&gt;&lt;/font&gt;&lt;div&gt;[%c4Type%]&lt;/div&gt;&lt;br&gt;&lt;div&gt;&lt;font style=&quot;font-size: 11px&quot;&gt;&lt;font color=&quot;#cccccc&quot;&gt;%c4Description%&lt;/font&gt;&lt;/div&gt;" id="pNY0bsHpFRQCRsH6tO0S-7">
          <mxCell style="rounded=1;whiteSpace=wrap;html=1;labelBackgroundColor=none;fillColor=#1061B0;fontColor=#ffffff;align=center;arcSize=10;strokeColor=#0D5091;metaEdit=1;resizable=0;points=[[0.25,0,0],[0.5,0,0],[0.75,0,0],[1,0.25,0],[1,0.5,0],[1,0.75,0],[0.75,1,0],[0.5,1,0],[0.25,1,0],[0,0.75,0],[0,0.5,0],[0,0.25,0]];" vertex="1" parent="1">
            <mxGeometry x="410" y="420" width="240" height="120" as="geometry" />
          </mxCell>
        </object>
        <object placeholders="1" c4Name="VU-CIAM" c4Type="Software System" c4Description="Proveedor de Identidad" label="&lt;font style=&quot;font-size: 16px&quot;&gt;&lt;b&gt;%c4Name%&lt;/b&gt;&lt;/font&gt;&lt;div&gt;[%c4Type%]&lt;/div&gt;&lt;br&gt;&lt;div&gt;&lt;font style=&quot;font-size: 11px&quot;&gt;&lt;font color=&quot;#cccccc&quot;&gt;%c4Description%&lt;/font&gt;&lt;/div&gt;" id="pNY0bsHpFRQCRsH6tO0S-8">
          <mxCell style="rounded=1;whiteSpace=wrap;html=1;labelBackgroundColor=none;fillColor=#1061B0;fontColor=#ffffff;align=center;arcSize=10;strokeColor=#0D5091;metaEdit=1;resizable=0;points=[[0.25,0,0],[0.5,0,0],[0.75,0,0],[1,0.25,0],[1,0.5,0],[1,0.75,0],[0.75,1,0],[0.5,1,0],[0.25,1,0],[0,0.75,0],[0,0.5,0],[0,0.25,0]];" vertex="1" parent="1">
            <mxGeometry x="410" y="-150" width="240" height="120" as="geometry" />
          </mxCell>
        </object>
        <object placeholders="1" c4Name="Motor de Reglas" c4Type="Software System" c4Description="" label="&lt;font style=&quot;font-size: 16px&quot;&gt;&lt;b&gt;%c4Name%&lt;/b&gt;&lt;/font&gt;&lt;div&gt;[%c4Type%]&lt;/div&gt;&lt;br&gt;&lt;div&gt;&lt;font style=&quot;font-size: 11px&quot;&gt;&lt;font color=&quot;#cccccc&quot;&gt;%c4Description%&lt;/font&gt;&lt;/div&gt;" id="pNY0bsHpFRQCRsH6tO0S-9">
          <mxCell style="rounded=1;whiteSpace=wrap;html=1;labelBackgroundColor=none;fillColor=#1061B0;fontColor=#ffffff;align=center;arcSize=10;strokeColor=#0D5091;metaEdit=1;resizable=0;points=[[0.25,0,0],[0.5,0,0],[0.75,0,0],[1,0.25,0],[1,0.5,0],[1,0.75,0],[0.75,1,0],[0.5,1,0],[0.25,1,0],[0,0.75,0],[0,0.5,0],[0,0.25,0]];" vertex="1" parent="1">
            <mxGeometry x="70" y="-150" width="240" height="120" as="geometry" />
          </mxCell>
        </object>
        <mxCell id="pNY0bsHpFRQCRsH6tO0S-16" style="edgeStyle=orthogonalEdgeStyle;rounded=0;orthogonalLoop=1;jettySize=auto;html=1;entryX=0;entryY=0.5;entryDx=0;entryDy=0;entryPerimeter=0;" edge="1" parent="1" source="PcE6n2Ai4SdndzJtJACp-2" target="pNY0bsHpFRQCRsH6tO0S-5">
          <mxGeometry relative="1" as="geometry" />
        </mxCell>
        <mxCell id="pNY0bsHpFRQCRsH6tO0S-17" value="Procesa Reembolso" style="edgeLabel;html=1;align=center;verticalAlign=middle;resizable=0;points=[];" vertex="1" connectable="0" parent="pNY0bsHpFRQCRsH6tO0S-16">
          <mxGeometry x="-0.08" y="1" relative="1" as="geometry">
            <mxPoint as="offset" />
          </mxGeometry>
        </mxCell>
        <object placeholders="1" c4Name="Módulos de Autoservicio" c4Type="Software System" c4Description="" label="&lt;font style=&quot;font-size: 16px&quot;&gt;&lt;b&gt;%c4Name%&lt;/b&gt;&lt;/font&gt;&lt;div&gt;[%c4Type%]&lt;/div&gt;&lt;br&gt;&lt;div&gt;&lt;font style=&quot;font-size: 11px&quot;&gt;&lt;font color=&quot;#cccccc&quot;&gt;%c4Description%&lt;/font&gt;&lt;/div&gt;" id="pNY0bsHpFRQCRsH6tO0S-18">
          <mxCell style="rounded=1;whiteSpace=wrap;html=1;labelBackgroundColor=none;fillColor=#1061B0;fontColor=#ffffff;align=center;arcSize=10;strokeColor=#0D5091;metaEdit=1;resizable=0;points=[[0.25,0,0],[0.5,0,0],[0.75,0,0],[1,0.25,0],[1,0.5,0],[1,0.75,0],[0.75,1,0],[0.5,1,0],[0.25,1,0],[0,0.75,0],[0,0.5,0],[0,0.25,0]];" vertex="1" parent="1">
            <mxGeometry x="860" y="430" width="240" height="120" as="geometry" />
          </mxCell>
        </object>
      </root>
    </mxGraphModel>
  </diagram>
  <diagram id="x529YvzytXji6PWa-FYA" name="Page-2">
    <mxGraphModel dx="1793" dy="933" grid="1" gridSize="10" guides="1" tooltips="1" connect="1" arrows="1" fold="1" page="1" pageScale="1" pageWidth="850" pageHeight="1100" math="0" shadow="0">
      <root>
        <mxCell id="0" />
        <mxCell id="1" parent="0" />
        <mxCell id="1BCQ7fBPx4ggTME60zux-3" value="Sistema de Devoluciones" style="rounded=1;whiteSpace=wrap;html=1;labelBackgroundColor=none;labelBorderColor=none;fillStyle=auto;strokeColor=#d79b00;fontSize=16;fillColor=#ffe6cc;opacity=80;verticalAlign=top;align=center;dashed=1;arcSize=2;fontStyle=1;shadow=1;" vertex="1" parent="1">
          <mxGeometry x="1220" y="370" width="370" height="320" as="geometry" />
        </mxCell>
        <mxCell id="1BCQ7fBPx4ggTME60zux-20" value="" style="rounded=1;whiteSpace=wrap;html=1;fontSize=14;" vertex="1" parent="1">
          <mxGeometry x="1270" y="576" width="90" height="84" as="geometry" />
        </mxCell>
        <mxCell id="fOmNgU-9z8ZZDQzBenX--298" value="Portal Corporativo" style="rounded=1;whiteSpace=wrap;html=1;labelBackgroundColor=none;labelBorderColor=none;fillStyle=auto;strokeColor=#6c8ebf;fontSize=16;fillColor=#dae8fc;opacity=80;verticalAlign=top;align=center;dashed=1;arcSize=2;fontStyle=1;shadow=1;" vertex="1" parent="1">
          <mxGeometry x="395" y="340" width="220" height="320" as="geometry" />
        </mxCell>
        <mxCell id="fOmNgU-9z8ZZDQzBenX--299" value="" style="shape=image;verticalLabelPosition=bottom;verticalAlign=top;imageAspect=0;aspect=fixed;image=data:image/png,iVBORw0KGgoAAAANSUhEUgAAAMsAAADLCAMAAAD3JZcBAAAAGXRFWHRTb2Z0d2FyZQBBZG9iZSBJbWFnZVJlYWR5ccllPAAAAw9pVFh0WE1MOmNvbS5hZG9iZS54bXAAAAAAADw/eHBhY2tldCBiZWdpbj0i77u/IiBpZD0iVzVNME1wQ2VoaUh6cmVTek5UY3prYzlkIj8+IDx4OnhtcG1ldGEgeG1sbnM6eD0iYWRvYmU6bnM6bWV0YS8iIHg6eG1wdGs9IkFkb2JlIFhNUCBDb3JlIDUuNS1jMDE0IDc5LjE1MTQ4MSwgMjAxMy8wMy8xMy0xMjowOToxNSAgICAgICAgIj4gPHJkZjpSREYgeG1sbnM6cmRmPSJodHRwOi8vd3d3LnczLm9yZy8xOTk5LzAyLzIyLXJkZi1zeW50YXgtbnMjIj4gPHJkZjpEZXNjcmlwdGlvbiByZGY6YWJvdXQ9IiIgeG1sbnM6eG1wTU09Imh0dHA6Ly9ucy5hZG9iZS5jb20veGFwLzEuMC9tbS8iIHhtbG5zOnN0UmVmPSJodHRwOi8vbnMuYWRvYmUuY29tL3hhcC8xLjAvc1R5cGUvUmVzb3VyY2VSZWYjIiB4bWxuczp4bXA9Imh0dHA6Ly9ucy5hZG9iZS5jb20veGFwLzEuMC8iIHhtcE1NOkRvY3VtZW50SUQ9InhtcC5kaWQ6Rjg0MkQzNzUwQTk4MTFFM0IyRjFFNUE3QTZFRDU4QjYiIHhtcE1NOkluc3RhbmNlSUQ9InhtcC5paWQ6Rjg0MkQzNzQwQTk4MTFFM0IyRjFFNUE3QTZFRDU4QjYiIHhtcDpDcmVhdG9yVG9vbD0iQWRvYmUgUGhvdG9zaG9wIENDIFdpbmRvd3MiPiA8eG1wTU06RGVyaXZlZEZyb20gc3RSZWY6aW5zdGFuY2VJRD0iMDRFQzRGQzM0N0FEMzQwMUI0N0RCMUZGMDUyNzAxNEMiIHN0UmVmOmRvY3VtZW50SUQ9IjA0RUM0RkMzNDdBRDM0MDFCNDdEQjFGRjA1MjcwMTRDIi8+IDwvcmRmOkRlc2NyaXB0aW9uPiA8L3JkZjpSREY+IDwveDp4bXBtZXRhPiA8P3hwYWNrZXQgZW5kPSJyIj8+Vcw2rAAAAt9QTFRFAHLF////IYTN8vj87/b7cbDf+/3+/f7/PpTT5/L6BXXGPJPTSpvW9/v9/P3+BnXG8/j88ff8A3TGIITM9fn9AXPFCXfH0+f13+34+vz+/v7/FX7KFH3KIoXNNY/RH4PMCnjH2er29vr9KonPP5XTzOPztNbu4/D5RpnVM47RCHbH1+n21uj2iL3kWKPZMI3QdbPgaKzd6/T6+Pv9AnPFv9zwEHvJOJHSG4HL8Pf8xN7ySZrW5PD5nMjocrHfBHTG7PT7GYDL4e74UZ/XR5nVlsXn7vb7JIbNYqjb1ej1rNHsx+DyE33Jz+T0QJXUGH/K6PL6D3rIjL/l7fX7EnzJRJjU0ub16fP6JofOUp/YzeP0jsHlPZTTe7bhI4XNxd/yYKfbK4rPib7kZ6vcf7jittfuHIHLsdTtvNrw4u/4Mo7Qd7TgqtDsDXnImcfoqc/r2uv3KIjOMY3QebXhgrrjDnrIDHnIC3jI5vH5B3bHSJrVr9PtLYvPO5PSQZbUZarclMTnTp3XbK7edrPgu9nwX6fbUJ7Xb6/eq9Hshbzj9Pn8y+LzT57XWaPZfrjiTJzWba7eXqbancnp1Of14O74Q5fUwd3xyuLzpM3qNpDRfLfh3ez3qM/rW6TaL4zQJ4jOj8HmLovPQpbUOZLSY6nc5fH5msfovdvwrdLsfbfhJYbNgLniVqLZU6DYudjv0eb1HoPMF3/Kwt3xOpLSjcDll8XnVKDYTZ3Xt9fvXKXabq/eYajbEXvJHYLMaazdgbnioszqps7rpc3rFn7K3u33+fz+NI/RocvqkMLmerXhg7rjwNzxvtvw6vP6oMrpcLDeKYnOa63duNjvhLvjp87rksPmVaHYyeHzk8Pmtdbuxt/y2+v3lcTnstTti7/lir7keLTgV6LZh73kc7Lfs9XudLLfutnvzuT0sNPt0OX0ZqrcRZjVaq3dm8joLIrPmMbonsnpN5DShrzjXaXaS5vWkWSPhAAACBVJREFUeNrs3fVDU10YB/DnAG7AhNEtJY10GkiJgmCBid0BIhaK+trd3f3a3R2v8drd8XZ3/wEvMri72+4mG+ds3OP5/uZO4Efw3nueczYAWFhYWFhYWFhYWFhYWFhYWFhYWFg+0MSn38juXpwsdsa4vqeLnq2JRQh5NBCvQp6+vf+t1ddtUFXMzUTJ8Np24E6xqz1Siegs8q6dzj041gwJREQWB8+kZRED/eyQtojDktj19PqbC1pKkc7UdYuDj6x/1kw3W1SD1GHL2KhFe/fkFKAap05axvm0aF7S2+pTpF/qmqXd35vyBzayQYak7lhc+i6MflZohQxPXbDIk2WXnv+Q4Y9qGRNbvKK6zdvTxg5hickscrMJ53a9CZYifDGJZdiOfoM32CPcMYnFAhGJSSz2FFksmOXDtsRbW8fTYLFuOyZoRUbGisH7P0oVtyUsJlDZ8PJ8qogt3k1Um+5NEq1lmcZVvyBTpJaFAo023cRpmSHU6v+RKC31BJv9EumxoAiKLOY+9FhQT4osgc70WOa3oseCllBkiaHIMoAiy2KKLLMosvxLkaXxxo+psSAkLQ6lxlLx7J/fkRoLQuEtTGCRtBxvZTXeyg6zBUnnpRrVMn/309mhPnleXl6eIwOW7WrjgdGCUJCX8Sx+M9QeAx1CU2puKXq/27WhkSwW0R00B4XW3FJfYFfH7tSUNvw/N7thFMsbwX8zSz1qSgcbq7fFNgUIm9WI90p7byNYWg+H2log6q5q08wtlS8PX88rnFk9Im4JkkPtLRDfZ4GyIfdrbkE5ilfQzLlG2JKj7U6mnwUgtce8ISuCg12HLJbxl8Zhz5UDDjkQtcRpfWDS1/Iu5Z6emt/lpRJuxB2ilq2A0yKcRdzhFGkIQUtauhEsEOlePaQ0kZwlS6Wf7x+rmh7v6ovdAv25MbeIWaQ9eL0ct173r3jJbuXc7HaYLfAFV/6PImXxC1N2CuCdqbTqdxRkOC3Wh6oHDSZluansY9ZFpSW42zqs+8iOaVWDPHoQsixV9lmu3nbXA6cFYrh7MyHLNK5LBwMOkullcehdvUjaTMQiVd4ovW0JW2By9Vc4adajk2VXF8wWm75cFxkibYHPq4bZvnuotstY+8IFp8ViENelrz9xyyqN9dmUeHwWu15cl7KhxC3OuRoznGmAzSLhLY+yyJ/t2as5xcoobNexCco+++xJW0a6CcyxcxsuC39/JDOOrKXDYeFHDy9Mlgf8XrMLiFpOapllOSbLW5XL4rZcgpYkbTcwiQyPxaOt6jP/fnNilolap5mIaf3yiVrPUQMJWfZpf8uAfys8lvkj1ftmtydiWapjnseY1vsjNDqbDSZhaY30+TsYWFM6qHl/Hi3BbnHorGOeBbgs7Xtp9l/SBbflQoaOeXZiq1uuuaA5YNRQzJYjaTrmscdXT14tULmcNBSvpZ2upV4axjp/E0eBHYuWWC3lfrr2AHHuv7gJbChG4r2OrdYxzxOs+2KSMb4agzZitXypY54IrBaEAn9VH7TFDqdllY55tuPee7Wdql7qTcFpCQvXOk0jF9yWiuV3gOoomRSjBR5rnWYOif39uOaqddNwnBZfbXd+1zIiZxXU/hf+iXUtFiD8ZGQ7GchYVA/i7cC73hc+0RANpCwS/iF8GV4L/C4wx2UgZkGvecN62eK1XNUsnM4BghYn3iIv3R6rpZWTxsOTDLBZhHYlmiqH5TXDaslXHd349UFDtsi11i33aF5bFiqHXYvFaRlU/bR6rGjX3JQBBwz8oBytP2OWfXR9X3wkOC2vBL4CTssE2KFWrTTnPf+H4ryOeVcXYjrLyVjqA7TN0Vpk6obRYl29LYaygZgFEiN4zX78t9/0xGgZwD1J+hK0AOwb01nxP8M2yKxmpUa9LRO4kxeRQNRS8RPgPWv91BO/JamM8ozFZhnJFRB3O5C2CGYTtvWLI3e+z2kzmMSyG5fFsZAb8hWYxPKfFJNli/LUZYLcJJZxrnrXLiYt6pl/YvQLtZOoIcHcgPEYPhTPEMtUPWtKng9fVt0NnXKn5/GK0+7Kp+Lan4TTYdFeAflez7rllJX8lg19ql4edoj36nkgafnpopYRt/WrJ3fU2JLYOLbi5eR+/LpUPSBqQc1+KRe68IzQr85/JFCzMTfZ8R+VIjIeis61WJs56u8aTr9dwzNLnKW5YGFXpbRvOx3IWxCyPzOjk1lVvW34sLNXa7b58l6LSgpmg1Eslad83AITilsnFA51N2Tv9b3vGflxFBjPYlBqbPmsA1BiyZkGQIflfs8yoMMS2x33Z/mazNJ9EAAtFgIfeGMySxFFlqcUWZpTZDlAj0W6jh6LWxk9luVAjyWAHssQZ2os7kkgQsu3gs2LQYyWGKHWK86itIwVqNtcKQdRWsC6n9rWpvtlBxCpBaBTgsoVzBJAvBaAkJQNlYcRnEpLJgOI2wIQ1rBFZGRIQzmA+C1GCbPUTYuEIktMVsLOOEos77YfN2eObv1zLBUWRQYd7/PqSak7FRbFHkuDJdEpa7pIaLBUJj5x3aYxQeGNabBUPRM2aDu95J6hv3ykLv6+pLxHp/avPWxBhaUyqe1k2d1nvvWnwaKIS8MW0Wt736fCosjRYWe/mRhuToWlMvKLIZeymri502CpWspHZe6dW9iSCovi0p2c1H/rQDcnGiyK+PaaFv1X4HgPGiyKeHpHRnznWvktihO7RXHpNgt4WJJQ6ggsLCwsLCwsLCwsLCwsLCwsLCwsLB9Q/hdgAMaHd6cT5/R8AAAAAElFTkSuQmCC;rounded=1;dashed=1;labelBackgroundColor=none;labelBorderColor=none;fillStyle=auto;strokeColor=default;fontSize=14;fontColor=#000000;fillColor=default;gradientColor=#CCE5FF;opacity=90;" vertex="1" parent="1">
          <mxGeometry x="585" y="340" width="30" height="30" as="geometry" />
        </mxCell>
        <mxCell id="fOmNgU-9z8ZZDQzBenX--300" value="&lt;b style=&quot;font-size: 16px;&quot;&gt;&lt;br&gt;Modulo de Seguridad&lt;/b&gt;" style="rounded=1;whiteSpace=wrap;html=1;dashed=1;fillColor=#ffe6cc;align=center;verticalAlign=top;strokeColor=#d79b00;opacity=80;arcSize=1;fontSize=16;shadow=1;" vertex="1" parent="1">
          <mxGeometry x="745" y="120" width="290" height="180" as="geometry" />
        </mxCell>
        <mxCell id="fOmNgU-9z8ZZDQzBenX--301" value="Login" style="rounded=1;whiteSpace=wrap;html=1;fontSize=14;fontStyle=0;fillColor=#eeeeee;strokeColor=#36393d;" vertex="1" parent="1">
          <mxGeometry x="765" y="180" width="250" height="34" as="geometry" />
        </mxCell>
        <mxCell id="fOmNgU-9z8ZZDQzBenX--302" style="edgeStyle=orthogonalEdgeStyle;rounded=1;orthogonalLoop=1;jettySize=auto;html=1;entryX=1;entryY=0.094;entryDx=0;entryDy=0;dashed=1;entryPerimeter=0;" edge="1" parent="1" source="fOmNgU-9z8ZZDQzBenX--303" target="fOmNgU-9z8ZZDQzBenX--305">
          <mxGeometry relative="1" as="geometry" />
        </mxCell>
        <mxCell id="fOmNgU-9z8ZZDQzBenX--303" value="SSO" style="rounded=1;whiteSpace=wrap;html=1;strokeColor=#36393d;fillColor=#eeeeee;fontSize=14;" vertex="1" parent="1">
          <mxGeometry x="765" y="226" width="250" height="34" as="geometry" />
        </mxCell>
        <mxCell id="fOmNgU-9z8ZZDQzBenX--304" value="" style="group" connectable="0" vertex="1" parent="1">
          <mxGeometry x="415" y="395" width="180" height="230" as="geometry" />
        </mxCell>
        <mxCell id="fOmNgU-9z8ZZDQzBenX--305" value="Modulo Devoluciones" style="rounded=1;whiteSpace=wrap;html=1;verticalAlign=top;arcSize=7;fillColor=#f5f5f5;strokeColor=#666666;fontColor=#333333;fontStyle=1;fontSize=14;" vertex="1" parent="fOmNgU-9z8ZZDQzBenX--304">
          <mxGeometry width="180" height="230" as="geometry" />
        </mxCell>
        <mxCell id="fOmNgU-9z8ZZDQzBenX--402" value="Formulario de&amp;nbsp;&lt;br&gt;Devoluciones" style="sketch=0;pointerEvents=1;shadow=0;dashed=0;html=1;strokeColor=none;fillColor=#505050;labelPosition=center;verticalLabelPosition=bottom;verticalAlign=top;outlineConnect=0;align=center;shape=mxgraph.office.concepts.form;" vertex="1" parent="fOmNgU-9z8ZZDQzBenX--304">
          <mxGeometry x="62" y="62.120000000000005" width="56" height="49" as="geometry" />
        </mxCell>
        <mxCell id="fOmNgU-9z8ZZDQzBenX--308" value="" style="group" connectable="0" vertex="1" parent="1">
          <mxGeometry x="965" y="121" width="69.00000000000011" height="20" as="geometry" />
        </mxCell>
        <mxCell id="fOmNgU-9z8ZZDQzBenX--309" value="" style="shape=image;verticalLabelPosition=bottom;verticalAlign=top;imageAspect=0;aspect=fixed;image=data:image/svg+xml,PHN2ZyB4bWxucz0iaHR0cDovL3d3dy53My5vcmcvMjAwMC9zdmciIGZpbGw9Im5vbmUiIHZpZXdCb3g9IjAgMCAxMjQgNDYiIGhlaWdodD0iNDYiIHdpZHRoPSIxMjQiPiYjeGE7PHBhdGggZmlsbD0iI0Y4N0M1NiIgZD0iTTEyMi42NTUgMy43MTE4MUMxMjEuOTYyIDIuOTQ4MTEgMTIxLjAzOSAyLjU1NzM3IDExOS45MiAyLjU1NzM3QzExOC44MDEgMi41NTczNyAxMTcuODc3IDIuOTQ4MTEgMTE3LjIyIDMuNzI5NTdDMTE2LjU4MSA0LjQ3NTUyIDExNi4yNDMgNS40MTY4NCAxMTYuMjQzIDYuNTE3OTlWMjcuMDEzN0MxMTYuMjQzIDI4Ljc4OTggMTE1LjgzNSAzMC4zNTI3IDExNS4wMTggMzEuNjQ5M0MxMTQuMjAxIDMyLjk0NTggMTEzLjExNyAzMy45NTgxIDExMS44MDMgMzQuNjY4NkMxMTAuNDg5IDM1LjM3OSAxMDkuMDUgMzUuNzM0MiAxMDcuNTA1IDM1LjczNDJDMTA2LjA4NCAzNS43MzQyIDEwNC43MzQgMzUuMzc5IDEwMy40NzMgMzQuNjY4NkMxMDIuMjEyIDMzLjk1ODEgMTAxLjIgMzIuOTQ1OCAxMDAuNDM2IDMxLjY0OTNDOTkuNjcyNSAzMC4zNTI3IDk5LjI4MTggMjguNzg5OCA5OS4yODE4IDI2Ljk5NlY2LjUxNzk5Qzk5LjI4MTggNS4zOTkwOCA5OC44NzMzIDQuNDU3NzYgOTguMDc0IDMuNjk0MDZDOTcuMjc0OCAyLjk0ODExIDk2LjM2OSAyLjU3NTEzIDk1LjM5MjIgMi41NzUxM0M5NC4yMDIyIDIuNTc1MTMgOTMuMjA3NiAyLjk0ODExIDkyLjQ0MzkgMy43MTE4MUM5MS42NjI1IDQuNDc1NTIgOTEuMjcxNyA1LjQxNjg0IDkxLjI3MTcgNi41MzU3NlYyNy4wMzE1QzkxLjI3MTcgMzAuMjI4NCA5MS45NjQ0IDMzLjEyMzQgOTMuMzQ5NyAzNS41OTIxQzk0LjczNTEgMzguMDc4NiA5Ni42NTMyIDQwLjA1IDk5LjA4NjQgNDEuNDM1NEMxMDEuNTAyIDQyLjgzODUgMTA0LjM0NCA0My41MzExIDEwNy41MjMgNDMuNTMxMUMxMTAuNjg0IDQzLjUzMTEgMTEzLjUyNiA0Mi44MjA3IDExNS45MjMgNDEuNDE3NkMxMTguMzM5IDQwLjAxNDUgMTIwLjI1NyAzOC4wNDMxIDEyMS42MjUgMzUuNTc0NEMxMjIuOTkyIDMzLjA4NzkgMTIzLjcwMyAzMC4yMTA3IDEyMy43MDMgMjcuMDEzN1Y2LjUxNzk5QzEyMy42ODUgNS40MTY4NCAxMjMuMzQ3IDQuNDc1NTIgMTIyLjY1NSAzLjcxMTgxWiIvPiYjeGE7PHBhdGggZmlsbD0iI0Y4N0M1NiIgZD0iTTg1LjEwODggMy42OTQwNkM4NC4zMDk2IDIuOTgzNjMgODMuMzY4MiAyLjYyODQyIDgyLjMwMjYgMi42Mjg0MkM4MC42NTA5IDIuNjI4NDIgNzkuNDQzMSAzLjQ0NTQxIDc4LjcxNSA1LjA5NzE0TDY4LjY5OCAzMC44MzIzTDU3Ljc1NzQgNS4wNzkzOEM1Ny4wMjkyIDMuNDA5ODggNTUuODIxNSAyLjU1NzM3IDU0LjE2OTggMi41NTczN0M1My4zNTI4IDIuNTU3MzcgNTIuNDgyNSAyLjg5NDgyIDUxLjU5NDUgMy41MzQyMUM1MC42NzA5IDQuMjI2ODcgNTAuMTkxNCA1LjIwMzcxIDUwLjE5MTQgNi40NjQ3MUM1MC4xOTE0IDYuNzEzMzYgNTAuMjA5MiA2Ljk3OTc3IDUwLjI2MjQgNy4yNDYxOEM1MC4yOTggNy41NDgxMSA1MC40MDQ1IDcuODMyMjggNTAuNTI4OSA4LjA5ODY5TDY0LjU1OTcgNDEuMDYyNEM2NC44OTcyIDQxLjg0MzkgNjUuNDEyMyA0Mi40MyA2Ni4wNTE2IDQyLjg1NjJDNjYuNjkxIDQzLjI2NDcgNjcuMzY1OSA0My40OTU2IDY4LjA1ODYgNDMuNTMxMUM2OC44MDQ1IDQzLjUzMTEgNjkuNTMyNyA0My4zMzU4IDcwLjIyNTQgNDIuOTI3M0M3MC45MzU4IDQyLjUxODggNzEuNTA0MSA0MS44Nzk0IDcxLjg3NzEgNDEuMDI2OUw4NS45MjU4IDguMTUxOTdDODYuMTc0NCA3LjU2NTg3IDg2LjI5ODcgNi45Nzk3NyA4Ni4yOTg3IDYuNDI5MTlDODYuMzE2NSA1LjMyODAzIDg1LjkwOCA0LjQwNDQ4IDg1LjEwODggMy42OTQwNloiLz4mI3hhOzxwYXRoIGZpbGw9IiNGODdDNTYiIGQ9Ik0zMC4zMTc0IDM5Ljg3MjZDMjguMTE1MSA0MC44MzE3IDI1Ljc4ODQgNDEuMzQ2NyAyMy4zNzMgNDEuMzgyMkMxNC4xOTA3IDQxLjU1OTggNi4xNjI5MyAzNC44NjQxIDQuODMwODkgMjUuNzg4NEMzLjE2MTM5IDE0LjQzOTQgMTEuOTUyOSA0LjYzNTUyIDIzIDQuNjM1NTJDMjMuNDA4NSA0LjYzNTUyIDIzLjgxNyA0LjY1MzI4IDI0LjIwNzcgNC42NzEwNEMyMy41MTUxIDIuNjQ2MzMgMjQuMzE0MyAwLjkwNTc5MiAyNC45ODkyIDAuMTA2NTY1VjAuMDg4ODAzMUMyNC4zMzIgMC4wMzU1MjEyIDIzLjY3NDkgMCAyMyAwQzEwLjMxODkgMCAwIDEwLjMxODkgMCAyM0MwIDM1LjY4MTEgMTAuMzE4OSA0NiAyMyA0NkMyNi4yMzI0IDQ2IDI5LjM1ODMgNDUuMzQyOSAzMi4yODg4IDQ0LjA0NjNDMzMuNTMyIDQzLjQ5NTggMzQuMDQ3MSA0MS45ODYxIDMzLjM1NDQgNDAuNzc4NEMzMi43NTA2IDM5Ljc0ODMgMzEuNDE4NSAzOS4zOTMxIDMwLjMxNzQgMzkuODcyNloiLz4mI3hhOzxwYXRoIGZpbGw9IiNGODdDNTYiIGQ9Ik00MS41NDIxIDkuNDQ4NzNDMzkuMzIyIDYuNDI5NDMgMzYuNDA5MyA0LjAzMTc0IDMzLjEyMzUgMi40MTU1M0MzMy4zNzIyIDQuMjYyNjMgMzIuNjA4NSA1Ljc5MDA1IDMxLjQzNjMgNi43MTM2VjYuNzMxMzVDMzMuOTIyOCA4LjAxMDEyIDM2LjEyNTEgOS44NzQ5OSAzNy44MTIzIDEyLjE4MzlDMzguNTc2MSAxMy4yMTQgNDAuMDE0NyAxMy40NDQ5IDQxLjA0NDggMTIuNjgxMkM0Mi4wNzQ5IDExLjkxNzUgNDIuMjg4IDEwLjQ3ODggNDEuNTQyMSA5LjQ0ODczWiIvPiYjeGE7PHBhdGggZmlsbD0iI0Y4N0M1NiIgZD0iTTI4LjU1OTYgNS4zMTEyOUMyOS43ODUzIDUuMzExMjkgMzAuNzggNC4zMTY1MiAzMC43OCAzLjA5MDgyQzMwLjc4IDEuODY1MTMgMjkuNzg1MyAwLjg3MDM2MSAyOC41NTk2IDAuODcwMzYxQzI3LjMzMzkgMC44NzAzNjEgMjYuMzM5MSAxLjg2NTEzIDI2LjMzOTEgMy4wOTA4MkMyNi4zMzkxIDQuMzE2NTIgMjcuMzMzOSA1LjMxMTI5IDI4LjU1OTYgNS4zMTEyOVoiLz4mI3hhOzxwYXRoIGZpbGw9IiNGODdDNTYiIGQ9Ik0yOS45ODE0IDEwLjYwNDlMMjguNzM4MSAxNS4yOTM3QzI5LjUxOTYgMTUuODYyIDMwLjIxMjMgMTYuNTU0NyAzMC43OTg0IDE3LjM1MzlDMzIuMDIzOSAxOS4wMjM0IDMyLjY2MzIgMjAuOTk0OCAzMi42NjMyIDIzLjA1NTFDMzIuNjYzMiAyNi44NzM2IDMwLjQwNzYgMzAuMzU0NyAyNi45MDg4IDMxLjg5OThDMjUuNjgzMyAzMi40NTA0IDI0LjM2OSAzMi43MTY4IDIzLjAwMTUgMzIuNzE2OEMxNy42NzMzIDMyLjcxNjggMTMuMzM5NyAyOC4zODMyIDEzLjMzOTcgMjMuMDU1MUMxMy4zMzk3IDE3Ljk0IDE3LjMzNTggMTMuNzQ4NSAyMi4zNjIxIDEzLjQyODhMMjMuNjA1MyA4Ljc5MzI3QzIzLjQxIDguNzc1NTEgMjMuMjE0NiA4Ljc3NTUxIDIzLjAwMTUgOC43NzU1MUMxNS4xMzM1IDguNzc1NTEgOC43MjE5MiAxNS4xODcxIDguNzIxOTIgMjMuMDU1MUM4LjcyMTkyIDMwLjkyMyAxNS4xMzM1IDM3LjMzNDYgMjMuMDAxNSAzNy4zMzQ2QzI1LjAwODQgMzcuMzM0NiAyNi45NDQzIDM2LjkyNjEgMjguNzczNyAzNi4xMjY5QzMzLjk0MiAzMy44MzU3IDM3LjI4MSAyOC43MDI5IDM3LjI4MSAyMy4wNTUxQzM3LjI4MSAyMC4wMDAyIDM2LjMyMTkgMTcuMDY5NyAzNC41MTAzIDE0LjYxODhDMzMuMjg0OSAxMi45NDkzIDMxLjczOTcgMTEuNTgxNyAyOS45ODE0IDEwLjYwNDlaIi8+JiN4YTs8cGF0aCBmaWxsPSIjRjg3QzU2IiBkPSJNMjQuOTcxNSAxNi40NDc2QzI1LjYyODggMTYuNjI1MyAyNi4zMjE2IDE2LjIzNDUgMjYuNDgxNCAxNS41NTk0TDI4LjA0NDYgOS42Nzk2NUMyOC4yMjIzIDkuMDIyNCAyNy44MzE1IDguMzI5NjEgMjcuMTU2NSA4LjE2OTc0QzI2LjQ5OTIgNy45OTIxIDI1LjgwNjQgOC4zODI5IDI1LjY0NjUgOS4wNTc5MkwyNC4wODMzIDE0LjkzNzdDMjMuOTIzNSAxNS41OTUgMjQuMzE0MyAxNi4yNyAyNC45NzE1IDE2LjQ0NzZaIi8+JiN4YTs8L3N2Zz4=;sketch=1;hachureGap=4;jiggle=2;curveFitting=1;fontFamily=Architects Daughter;fontSource=https%3A%2F%2Ffonts.googleapis.com%2Fcss%3Ffamily%3DArchitects%2BDaughter;fontSize=20;rounded=1;container=0;" vertex="1" parent="fOmNgU-9z8ZZDQzBenX--308">
          <mxGeometry y="4" width="26.96" height="10" as="geometry" />
        </mxCell>
        <mxCell id="fOmNgU-9z8ZZDQzBenX--310" value="-CIAM" style="text;html=1;strokeColor=none;fillColor=none;align=center;verticalAlign=middle;whiteSpace=wrap;rounded=0;fontSize=12;fontColor=#FF8000;fontStyle=1;container=0;" vertex="1" parent="fOmNgU-9z8ZZDQzBenX--308">
          <mxGeometry x="22.910000000000082" width="46.09" height="20" as="geometry" />
        </mxCell>
        <mxCell id="fOmNgU-9z8ZZDQzBenX--311" style="edgeStyle=orthogonalEdgeStyle;rounded=1;orthogonalLoop=1;jettySize=auto;html=1;strokeWidth=2;" edge="1" parent="1" source="fOmNgU-9z8ZZDQzBenX--313" target="fOmNgU-9z8ZZDQzBenX--301">
          <mxGeometry relative="1" as="geometry">
            <Array as="points">
              <mxPoint x="245" y="197" />
            </Array>
          </mxGeometry>
        </mxCell>
        <mxCell id="fOmNgU-9z8ZZDQzBenX--312" style="edgeStyle=orthogonalEdgeStyle;rounded=1;orthogonalLoop=1;jettySize=auto;html=1;entryX=0;entryY=0.5;entryDx=0;entryDy=0;dashed=1;" edge="1" parent="1" source="fOmNgU-9z8ZZDQzBenX--313" target="fOmNgU-9z8ZZDQzBenX--305">
          <mxGeometry relative="1" as="geometry" />
        </mxCell>
        <mxCell id="fOmNgU-9z8ZZDQzBenX--313" value="Clientes" style="sketch=0;outlineConnect=0;gradientColor=none;fontColor=#545B64;strokeColor=none;fillColor=#879196;dashed=0;verticalLabelPosition=bottom;verticalAlign=top;align=center;html=1;fontSize=12;fontStyle=0;aspect=fixed;shape=mxgraph.aws4.illustration_users;pointerEvents=1" vertex="1" parent="1">
          <mxGeometry x="215" y="310" width="60" height="60" as="geometry" />
        </mxCell>
        <mxCell id="fOmNgU-9z8ZZDQzBenX--338" value="FileServer&lt;br&gt;Compensar" style="shape=image;html=1;verticalAlign=top;verticalLabelPosition=bottom;labelBackgroundColor=#ffffff;imageAspect=0;aspect=fixed;image=https://cdn2.iconfinder.com/data/icons/whcompare-servers-web-hosting/50/sftp-128.png" vertex="1" parent="1">
          <mxGeometry x="846.88" y="865" width="80" height="80" as="geometry" />
        </mxCell>
        <mxCell id="fOmNgU-9z8ZZDQzBenX--339" value="" style="endArrow=classic;html=1;rounded=0;exitX=0.5;exitY=1;exitDx=0;exitDy=0;entryX=0;entryY=0.5;entryDx=0;entryDy=0;edgeStyle=orthogonalEdgeStyle;" edge="1" parent="1" source="1BCQ7fBPx4ggTME60zux-28" target="fOmNgU-9z8ZZDQzBenX--338">
          <mxGeometry width="50" height="50" relative="1" as="geometry">
            <mxPoint x="525" y="790" as="sourcePoint" />
            <mxPoint x="575" y="740" as="targetPoint" />
          </mxGeometry>
        </mxCell>
        <mxCell id="fOmNgU-9z8ZZDQzBenX--340" value="Upload&amp;nbsp;Documentos&amp;nbsp;Soporte" style="edgeLabel;html=1;align=center;verticalAlign=middle;resizable=0;points=[];fontSize=12;" connectable="0" vertex="1" parent="fOmNgU-9z8ZZDQzBenX--339">
          <mxGeometry x="0.5268" relative="1" as="geometry">
            <mxPoint as="offset" />
          </mxGeometry>
        </mxCell>
        <mxCell id="1BCQ7fBPx4ggTME60zux-1" value="SAP" style="rounded=1;whiteSpace=wrap;html=1;labelBackgroundColor=none;labelBorderColor=none;fillStyle=auto;strokeColor=#6c8ebf;fontSize=16;fillColor=#dae8fc;opacity=80;verticalAlign=top;align=center;dashed=1;arcSize=2;fontStyle=1;shadow=1;" vertex="1" parent="1">
          <mxGeometry x="1880" y="380" width="220" height="240" as="geometry" />
        </mxCell>
        <mxCell id="1BCQ7fBPx4ggTME60zux-2" value="" style="shape=image;verticalLabelPosition=bottom;verticalAlign=top;imageAspect=0;image=https://external-content.duckduckgo.com/iu/?u=https%3A%2F%2Ftse1.mm.bing.net%2Fth%3Fid%3DOIP.2KwUItE0pV7lGtcwDr6idwHaHa%26pid%3DApi&amp;f=1&amp;ipt=9bf0a879177b7251136c790d76ba4e812d0a6eeffe27221b29425dbfaf020553&amp;ipo=images;" vertex="1" parent="1">
          <mxGeometry x="1880" y="380" width="70" height="52" as="geometry" />
        </mxCell>
        <mxCell id="1BCQ7fBPx4ggTME60zux-7" value="Interoperabilidad&amp;nbsp;Compensar Caja" style="rounded=1;whiteSpace=wrap;html=1;fontSize=14;verticalAlign=top;fontStyle=0;dashed=1;fillStyle=auto;gradientColor=#E6E6E6;dashPattern=8 8;arcSize=0;align=center;opacity=80;" vertex="1" parent="1">
          <mxGeometry x="797" y="380" width="238" height="240" as="geometry" />
        </mxCell>
        <mxCell id="1BCQ7fBPx4ggTME60zux-8" value="AWS Cloud" style="points=[[0,0],[0.25,0],[0.5,0],[0.75,0],[1,0],[1,0.25],[1,0.5],[1,0.75],[1,1],[0.75,1],[0.5,1],[0.25,1],[0,1],[0,0.75],[0,0.5],[0,0.25]];outlineConnect=0;html=1;whiteSpace=wrap;fontSize=12;fontStyle=0;container=0;pointerEvents=0;collapsible=0;recursiveResize=0;shape=mxgraph.aws4.group;grIcon=mxgraph.aws4.group_aws_cloud_alt;fillColor=default;verticalAlign=top;align=left;spacingLeft=30;dashed=1;fillStyle=auto;gradientColor=#E6E6E6;dashPattern=8 8;rounded=1;opacity=70;" vertex="1" parent="1">
          <mxGeometry x="810.12" y="419.37" width="200" height="140" as="geometry" />
        </mxCell>
        <mxCell id="1BCQ7fBPx4ggTME60zux-15" style="edgeStyle=orthogonalEdgeStyle;rounded=0;orthogonalLoop=1;jettySize=auto;html=1;" edge="1" parent="1" source="1BCQ7fBPx4ggTME60zux-9" target="1BCQ7fBPx4ggTME60zux-5">
          <mxGeometry relative="1" as="geometry" />
        </mxCell>
        <mxCell id="1BCQ7fBPx4ggTME60zux-9" value="Radicar Devoluciones" style="ellipse;whiteSpace=wrap;html=1;aspect=fixed;fillColor=#d5e8d4;strokeColor=#82b366;container=0;shadow=1;" vertex="1" parent="1">
          <mxGeometry x="1250" y="472.5" width="75" height="75" as="geometry" />
        </mxCell>
        <mxCell id="1BCQ7fBPx4ggTME60zux-10" style="edgeStyle=orthogonalEdgeStyle;rounded=0;orthogonalLoop=1;jettySize=auto;html=1;entryX=0;entryY=0.5;entryDx=0;entryDy=0;" edge="1" parent="1" source="fOmNgU-9z8ZZDQzBenX--305" target="1BCQ7fBPx4ggTME60zux-13">
          <mxGeometry relative="1" as="geometry" />
        </mxCell>
        <mxCell id="1BCQ7fBPx4ggTME60zux-11" value="Crea solicitud Devolución" style="edgeLabel;html=1;align=center;verticalAlign=middle;resizable=0;points=[];" vertex="1" connectable="0" parent="1BCQ7fBPx4ggTME60zux-10">
          <mxGeometry x="-0.532" y="3" relative="1" as="geometry">
            <mxPoint x="50" y="-1" as="offset" />
          </mxGeometry>
        </mxCell>
        <mxCell id="1BCQ7fBPx4ggTME60zux-24" style="edgeStyle=orthogonalEdgeStyle;rounded=0;orthogonalLoop=1;jettySize=auto;html=1;entryX=1;entryY=0.5;entryDx=0;entryDy=0;" edge="1" parent="1" source="1BCQ7fBPx4ggTME60zux-12" target="1BCQ7fBPx4ggTME60zux-23">
          <mxGeometry relative="1" as="geometry">
            <Array as="points">
              <mxPoint x="1550" y="212" />
              <mxPoint x="1550" y="500" />
            </Array>
          </mxGeometry>
        </mxCell>
        <mxCell id="1BCQ7fBPx4ggTME60zux-26" value="Revisión y validación Manual" style="edgeLabel;html=1;align=center;verticalAlign=middle;resizable=0;points=[];" vertex="1" connectable="0" parent="1BCQ7fBPx4ggTME60zux-24">
          <mxGeometry x="-0.0358" y="1" relative="1" as="geometry">
            <mxPoint as="offset" />
          </mxGeometry>
        </mxCell>
        <mxCell id="1BCQ7fBPx4ggTME60zux-34" style="edgeStyle=orthogonalEdgeStyle;rounded=0;orthogonalLoop=1;jettySize=auto;html=1;entryX=0;entryY=0.5;entryDx=0;entryDy=0;" edge="1" parent="1" source="1BCQ7fBPx4ggTME60zux-12" target="1BCQ7fBPx4ggTME60zux-33">
          <mxGeometry relative="1" as="geometry" />
        </mxCell>
        <mxCell id="1BCQ7fBPx4ggTME60zux-12" value="Analista Devoluciones" style="outlineConnect=0;dashed=0;verticalLabelPosition=bottom;verticalAlign=top;align=center;html=1;shape=mxgraph.aws3.user;fillColor=#D2D3D3;gradientColor=none;labelBackgroundColor=default;" vertex="1" parent="1">
          <mxGeometry x="1650" y="180" width="45" height="63" as="geometry" />
        </mxCell>
        <mxCell id="1BCQ7fBPx4ggTME60zux-14" style="edgeStyle=orthogonalEdgeStyle;rounded=0;orthogonalLoop=1;jettySize=auto;html=1;" edge="1" parent="1" source="1BCQ7fBPx4ggTME60zux-13" target="1BCQ7fBPx4ggTME60zux-9">
          <mxGeometry relative="1" as="geometry" />
        </mxCell>
        <mxCell id="1BCQ7fBPx4ggTME60zux-13" value="API Devoluciones" style="ellipse;whiteSpace=wrap;html=1;aspect=fixed;fillColor=#fad9d5;strokeColor=#ae4132;container=0;shadow=1;" vertex="1" parent="1">
          <mxGeometry x="878.5" y="472.5" width="75" height="75" as="geometry" />
        </mxCell>
        <mxCell id="1BCQ7fBPx4ggTME60zux-5" value="" style="image;aspect=fixed;html=1;points=[];align=center;fontSize=12;image=img/lib/azure2/databases/SQL_Server.svg;" vertex="1" parent="1">
          <mxGeometry x="1290" y="584" width="68" height="68" as="geometry" />
        </mxCell>
        <mxCell id="1BCQ7fBPx4ggTME60zux-25" style="edgeStyle=orthogonalEdgeStyle;rounded=0;orthogonalLoop=1;jettySize=auto;html=1;entryX=1;entryY=0.5;entryDx=0;entryDy=0;exitX=0.5;exitY=1;exitDx=0;exitDy=0;" edge="1" parent="1" source="1BCQ7fBPx4ggTME60zux-23" target="1BCQ7fBPx4ggTME60zux-20">
          <mxGeometry relative="1" as="geometry" />
        </mxCell>
        <mxCell id="1BCQ7fBPx4ggTME60zux-27" style="edgeStyle=orthogonalEdgeStyle;rounded=0;orthogonalLoop=1;jettySize=auto;html=1;entryX=1;entryY=0.5;entryDx=0;entryDy=0;" edge="1" parent="1" source="1BCQ7fBPx4ggTME60zux-23" target="fOmNgU-9z8ZZDQzBenX--338">
          <mxGeometry relative="1" as="geometry">
            <Array as="points">
              <mxPoint x="1490" y="905" />
            </Array>
          </mxGeometry>
        </mxCell>
        <mxCell id="1BCQ7fBPx4ggTME60zux-32" value="Consulta Soportes" style="edgeLabel;html=1;align=center;verticalAlign=middle;resizable=0;points=[];" vertex="1" connectable="0" parent="1BCQ7fBPx4ggTME60zux-27">
          <mxGeometry x="0.2769" y="3" relative="1" as="geometry">
            <mxPoint as="offset" />
          </mxGeometry>
        </mxCell>
        <mxCell id="1BCQ7fBPx4ggTME60zux-23" value="Cola de Solicitudes" style="rounded=1;whiteSpace=wrap;html=1;strokeColor=#36393d;fillColor=#eeeeee;fontSize=14;" vertex="1" parent="1">
          <mxGeometry x="1380" y="483" width="140" height="34" as="geometry" />
        </mxCell>
        <mxCell id="1BCQ7fBPx4ggTME60zux-28" value="GO AnyWhere" style="rounded=1;whiteSpace=wrap;html=1;" vertex="1" parent="1">
          <mxGeometry x="445" y="820" width="120" height="60" as="geometry" />
        </mxCell>
        <mxCell id="1BCQ7fBPx4ggTME60zux-31" style="edgeStyle=orthogonalEdgeStyle;rounded=0;orthogonalLoop=1;jettySize=auto;html=1;" edge="1" parent="1" source="fOmNgU-9z8ZZDQzBenX--305" target="1BCQ7fBPx4ggTME60zux-28">
          <mxGeometry relative="1" as="geometry" />
        </mxCell>
        <mxCell id="1BCQ7fBPx4ggTME60zux-33" value="Reembolso" style="rounded=1;whiteSpace=wrap;html=1;strokeColor=#36393d;fillColor=#eeeeee;fontSize=14;" vertex="1" parent="1">
          <mxGeometry x="1910" y="472.5" width="140" height="34" as="geometry" />
        </mxCell>
      </root>
    </mxGraphModel>
  </diagram>
</mxfile>
